<?xml version="1.0" encoding="utf-8"?>
<!-- Generator: Adobe Illustrator 23.1.0, SVG Export Plug-In . SVG Version: 6.00 Build 0)  -->
<svg version="1.1" id="Layer_1" xmlns="http://www.w3.org/2000/svg" xmlns:xlink="http://www.w3.org/1999/xlink" x="0px" y="0px"
	 viewBox="0 0 624.6 267.6" style="enable-background:new 0 0 624.6 267.6;" xml:space="preserve">
<style type="text/css">
	.st0{fill:#FFFFFF;}
</style>
<g>
	<path class="st0" d="M139.4,108.4c-1.2,1.5-2.1,2.7-3,3.8c-12.8,15.8-33.3,21.8-52,15.1c-19.2-6.8-31.6-24.3-31.5-44.6
		c0.1-19.9,12.7-37.2,31.7-44c10.8-3.8,21.5-2.8,32.3,0.4c1.1-1.7,0.5-3.6,0.5-5.3c0.2-10.1-0.2-20.2,0.1-30.2
		c-6.2-1.3-13.1-2-20.6-2c-7.9,0-15.2,1-21.8,2.8C41.4,15,17.7,46.1,17.1,81.2c-0.9,46.3,36.5,84.4,82.8,84.3
		c20.8-0.1,39-7.2,54.6-20.9c1.2-1.1,3.2-1.8,1.3-4.3C148.2,131,143,120.3,139.4,108.4z"/>
	<path class="st0" d="M296.4,1.9c0.9,0.3,1.5,0.7,1.6,1.3c0.4,1.6-2.8,3.8-7.1,4.8c-4.3,1-8.1,0.5-8.5-1.1c-0.1-0.3,0-0.5,0.1-0.8
		c0.6,1.1,3.5,1.4,6.6,0.6c3.4-0.8,5.9-2.5,5.6-3.8c-0.2-0.7-1-1.1-2.3-1.2c0.4,0,0.7,0,1.1,0c0,0,0,0-0.1,0
		c-16.4,0-31.6,30.9-31.6,38.1s8.1,15.6,17.5,15.6s11.1-6.3,14.1-6.3c3.2,0,6.2,6.3,14.6,6.3s16.7-8.6,16.7-15.6
		C324.8,33.1,311.5,5.2,296.4,1.9z"/>
	<path class="st0" d="M491.9,194.3V72.1c-5.7-44.9-51.2-77.7-95.7-69.2c-44.6,8.5-73.4,48.5-67.3,93.7
		c7.2,53.5,67.1,85.9,115.9,62.8c2.5-1.2,3.3-2.6,3.3-5.3c-0.1-12.3,0-24.6-0.1-37c0-1.2,0.7-2.6-0.6-3.6
		c-17.1,20.1-42.5,22.2-61.2,10.9c-18.5-11.2-27-34.1-20.2-54.6c7-21.2,27.7-34.5,50-32.1c21.3,2.3,38.5,19.8,41.1,41.8
		c0.6,1.8,0.3,3.6,0.3,5.4c0,36.5,0,72.9,0,109.4L491.9,194.3L491.9,194.3z"/>
	<path class="st0" d="M457.4,157.2c0.1,36.5,0.1-12.8,0,23.7c0,1.8,0.3,3.7-0.3,5.4c-2.6,22.1-19.8,39.6-41.1,41.9
		c-22.3,2.4-43-10.8-50-32.1c-1.8-5.6-2.5-11.3-2.3-16.9h-35.5c-1,40.9,26.7,75.8,68.1,83.7c44.5,8.5,90-24.3,95.7-69.2v-36.5
		L457.4,157.2L457.4,157.2z"/>
	<path class="st0" d="M283.8,76.1h-8.1l0.1,9.4c-0.4,8.9-3.5,17.8-9.2,25.4c-12,16.1-32.7,22.9-51.5,17
		c-19.6-6.1-32.8-23.9-33.1-45.1c-0.2-14.6-3.7-28.3-11.1-40.9c-10.2-17.5-24.8-29.5-44.3-36.7c0,13,0,25.5,0,37.9
		c0,1.6,0.8,2.4,1.9,3.2c12.9,10.4,17.7,24.1,18.2,40.3c1.4,48.1,45.9,85.2,93.4,78.3c36.2-5.3,65.3-33.9,70.4-69.2
		c0.5-3.4,0.8-6.9,0.9-10.3V42h-35.8v34.1"/>
	<path class="st0" d="M607.6,115.1c-1.1-6.6-3.6-12.8-7.1-18.4c-17.1-23-56.6-13-59.1-38.3c0-0.1,0-0.1,0-0.2c0-0.2,0-0.3,0-0.5
		c0-0.1,0-0.3,0-0.4c0-0.4,0-0.8,0-1.2c0-0.1,0-0.2,0-0.3c0-0.6,0-1.2,0.1-1.6c0.8-6.8,5.3-12.6,12-14.8c0.3-0.1,0.8-0.2,1.2-0.3
		c0.5-0.1,0.9-0.2,1.4-0.2c0.7-0.1,1.5-0.1,2.2-0.1c7.5,0,14.3,4.8,16.7,11.9c0.7,2,1,4.1,0.9,6.3l-0.3,7.4l32.8-0.4l0.1-6.8
		c0.1-9.7-2.4-18.8-7-26.5c-1.8-2.8-16.3-24.6-43.4-24.6c-24.8,0.2-46.5,19.3-49.3,43.5l0,0.4l0,4.4c0,0.2,0,0.4,0,0.7
		c0.1,3.7,0.4,7.1,0.9,10.3c0.2,1.1,0.4,2.1,0.7,3.2l0.1,0.3c0.3,1,0.5,1.9,0.9,2.8l0.1,0.3l0,0.1c2.7,7.8,7.2,14.7,12.9,20.3
		c18.1,13.5,46,7.9,50.7,26c0.3,1,0.5,1.9,0.6,3c0.1,0.9,0.1,1.9,0.1,2.8c0,0,0,0.1,0,0.1c0,0.1,0,0.1,0,0.1c0,0.1,0,0.1,0,0.2
		c0,0.3,0,0.6-0.1,0.8c-0.8,6.8-5.3,12.6-12,14.8c-0.3,0.1-0.8,0.2-1.2,0.3c-0.5,0.1-0.9,0.2-1.4,0.2c-0.7,0.1-1.5,0.1-2.2,0.1
		c-7.5,0-14.3-4.8-16.7-11.9c-0.7-2-1-4.1-0.9-6.3l0.3-7.4l-32.8,0.4l-0.1,6.8c-0.1,10.6,2.9,20.4,8.2,28.6c2,2.9,9,12.1,20.9,17.8
		c3.8,1.7,7.8,3,12.1,3.9v0.1c2.7,0.5,5.5,0.8,8.5,0.8h0.7c24.8-0.2,46.5-19.3,49.3-43.5l0-0.4l0-4.4
		C608.2,121.4,608,118.1,607.6,115.1z"/>
</g>
</svg>
